<?xml version="1.0" encoding="UTF-8" standalone="no"?>
<!-- Created with Inkscape (http://www.inkscape.org/) -->

<svg
   width="512"
   height="512"
   viewBox="0 0 135.46666 135.46667"
   version="1.1"
   id="svg1"
   inkscape:version="1.4 (86a8ad7, 2024-10-11)"
   sodipodi:docname="icon.svg"
   xmlns:inkscape="http://www.inkscape.org/namespaces/inkscape"
   xmlns:sodipodi="http://sodipodi.sourceforge.net/DTD/sodipodi-0.dtd"
   xmlns="http://www.w3.org/2000/svg"
   xmlns:svg="http://www.w3.org/2000/svg">
  <sodipodi:namedview
     id="namedview1"
     pagecolor="#505050"
     bordercolor="#eeeeee"
     borderopacity="1"
     inkscape:showpageshadow="0"
     inkscape:pageopacity="0"
     inkscape:pagecheckerboard="0"
     inkscape:deskcolor="#505050"
     inkscape:document-units="mm"
     inkscape:zoom="0.25669573"
     inkscape:cx="346.71398"
     inkscape:cy="1275.8295"
     inkscape:window-width="1920"
     inkscape:window-height="1017"
     inkscape:window-x="-8"
     inkscape:window-y="-8"
     inkscape:window-maximized="1"
     inkscape:current-layer="layer1" />
  <defs
     id="defs1" />
  <g
     inkscape:label="Layer 1"
     inkscape:groupmode="layer"
     id="layer1">
    <path
       style="fill:#000000;fill-opacity:0.65;stroke-width:0.213075"
       d="m 66.092841,135.19982 c -0.46877,-0.14969 -2.146736,-1.02041 -3.728792,-1.93472 -1.582083,-0.91427 -6.951553,-4.01152 -11.93216,-6.88274 C 27.092544,112.92766 8.9074383,102.35944 8.0912633,101.77626 7.0836733,101.05629 6.3649137,100.10393 5.6430075,98.532336 L 5.1536371,97.466967 V 67.956206 38.445424 L 5.750407,37.166982 C 6.947502,34.602471 5.9661386,35.264508 26.037204,23.480958 52.36783,8.0224713 65.112999,0.64880616 66.054231,0.32924548 c 1.236318,-0.41972897 2.539711,-0.43845881 3.786812,-0.0544094 0.516686,0.1592162 11.00718,6.16033752 23.312207,13.33602192 12.30503,7.175711 25.05406,14.596337 28.33116,16.490283 4.6966,2.714323 6.23472,3.714249 7.26342,4.721976 2.21084,2.165742 2.02557,-0.983929 1.96194,33.354436 l -0.0554,29.928583 -0.52296,1.023696 c -0.28764,0.563018 -0.95883,1.428908 -1.49151,1.924158 -0.53271,0.49527 -3.94094,2.63178 -7.57385,4.7478 -3.63291,2.11599 -16.28953,9.4946 -28.125788,16.39687 -11.836281,6.90228 -21.999916,12.71573 -22.585855,12.91882 -1.247301,0.43231 -3.056877,0.46724 -4.261503,0.0822 z m 4.261477,-21.51234 c 1.794032,-0.48439 2.277872,-0.74553 13.885686,-7.49374 6.191377,-3.59938 13.893855,-8.076525 17.116616,-9.949235 6.13356,-3.564182 7.40716,-4.52512 8.38952,-6.330031 1.15417,-2.120609 1.19883,-2.636843 1.19848,-13.852961 0,-11.576771 0.015,-11.454437 -1.49119,-12.206666 -0.69456,-0.346964 -2.16118,-0.372566 -21.360696,-0.372867 l -20.61491,-5.29e-4 v 5.859531 5.859532 h 13.711772 13.711772 l 0.720887,0.485824 c 1.12354,0.757143 1.253169,1.214829 1.256654,4.436663 0.0024,2.661645 -0.03611,2.954629 -0.476268,3.589061 -0.353839,0.509867 -2.544628,1.889582 -8.363163,5.266946 -4.33607,2.51687 -10.137007,5.884178 -12.890996,7.482907 -2.753965,1.598757 -5.423832,3.044564 -5.933047,3.212931 -1.826096,0.603804 -1.0331,1.012664 -24.216934,-12.485879 -4.846389,-2.821763 -6.04219,-3.944977 -6.745349,-6.335927 -0.262694,-0.893191 -0.237696,-24.674548 0.02708,-25.657451 0.294265,-1.09275 1.299658,-2.604275 2.270676,-3.413746 1.222981,-1.019509 24.962816,-14.867305 26.266259,-15.321508 1.716702,-0.598178 2.002611,-0.487479 8.56643,3.317311 23.886089,13.845866 22.652678,13.170914 23.68939,12.963581 0.907624,-0.18153 8.703933,-4.704199 9.447993,-5.48082 0.76776,-0.801373 0.84958,-2.181087 0.18227,-3.074755 -0.23744,-0.318079 -2.33944,-1.673952 -4.68764,-3.023777 C 69.940859,21.574626 71.524322,22.461398 70.072142,22.153221 68.181808,21.752046 65.71812,21.943858 64.277426,22.604517 63.341085,23.03385 48.695979,31.455558 30.82902,41.839134 c -1.347694,0.783246 -2.910786,1.874189 -3.473533,2.424375 -1.242914,1.215133 -2.186455,3.083602 -2.495695,4.94217 -0.156258,0.939176 -0.20999,7.248925 -0.166914,19.602824 l 0.06356,18.21784 0.509568,1.278443 c 1.021836,2.563656 2.140948,3.743084 5.349974,5.638334 1.347692,0.795957 9.35395,5.423907 17.791703,10.28434 13.609171,7.83938 16.191085,9.22536 17.898207,9.60783 0.910316,0.20385 3.032628,0.12637 4.048427,-0.14794 z"
       id="path2" />
  </g>
</svg>
