<?xml version="1.0" encoding="UTF-8" standalone="no"?>
<svg
   id="svg"
   version="1.1"
   width="1150"
   height="210"
   sodipodi:docname="logo.svg"
   inkscape:version="1.4.2 (f4327f4, 2025-05-13)"
   xmlns:inkscape="http://www.inkscape.org/namespaces/inkscape"
   xmlns:sodipodi="http://sodipodi.sourceforge.net/DTD/sodipodi-0.dtd"
   xmlns="http://www.w3.org/2000/svg"
   xmlns:svg="http://www.w3.org/2000/svg">
  <defs
     id="defs1">
    <rect
       x="178.83571"
       y="5.2988358"
       width="641.15912"
       height="198.70634"
       id="rect1" />
  </defs>
  <sodipodi:namedview
     id="namedview1"
     pagecolor="#ffffff"
     bordercolor="#000000"
     borderopacity="0.25"
     inkscape:showpageshadow="2"
     inkscape:pageopacity="0.0"
     inkscape:pagecheckerboard="0"
     inkscape:deskcolor="#d1d1d1"
     inkscape:zoom="0.75488281"
     inkscape:cx="511.33765"
     inkscape:cy="111.9379"
     inkscape:window-width="1920"
     inkscape:window-height="991"
     inkscape:window-x="-9"
     inkscape:window-y="-9"
     inkscape:window-maximized="1"
     inkscape:current-layer="svg" />
  <path
     d="M 78.098771,4.6767814 C 73.790795,7.2486237 60.245361,15.656756 47.998358,23.360659 35.751354,31.064562 20.528452,40.566332 14.170897,44.476889 5.5034818,49.807528 2.2831384,52.34353 1.3053574,54.611207 0.28403152,56.977689 0,68.071968 0,105.58599 c 0,42.81076 0.17318995,48.18887 1.6170993,50.18435 1.3904679,1.92089 75.3485147,49.07617 83.3993727,53.17465 1.710127,0.86988 4.178332,1.25638 6.092328,0.95222 4.356469,-0.69261 78.3254,-46.50821 84.06046,-52.06649 l 2.96897,-2.87795 0.27315,-49.20404 0.27314,-49.203072 -2.25245,-3.113333 C 174.98123,51.428128 165.5498,45.035816 149.93301,35.47205 136.59739,27.305119 118.16404,15.983201 108.97013,10.311586 96.754792,2.7772022 91.401738,0 89.092869,0 87.056155,0 83.145031,1.6641902 78.098771,4.6767814 M 100.66295,40.879216 c 5.59849,3.836936 17.83757,11.887626 27.19874,17.890529 9.36116,6.002903 17.48921,11.771385 18.06123,12.818527 0.57302,1.047142 1.04112,4.314496 1.04112,7.261217 0,4.305777 -0.37607,5.554404 -1.91399,6.360345 -1.19848,0.627704 -13.10405,1.002582 -31.83924,1.002582 -26.455511,0 -30.133076,0.185987 -31.733351,1.603164 -1.603244,1.420083 -1.810082,3.295445 -1.810082,16.39876 0,12.15789 0.277104,15.06587 1.554751,16.3174 1.347913,1.31837 5.696465,1.52179 32.588412,1.52179 26.89194,0 31.2405,0.20343 32.58841,1.5218 1.11336,1.09073 1.55475,3.42331 1.55475,8.22796 0,7.86082 1.43401,6.47852 -21.34591,20.58055 -7.58275,4.69421 -18.80447,11.9719 -24.93638,16.17403 l -11.148487,7.63997 -13.340574,-8.42557 C 69.846022,163.13908 56.715255,154.83847 48.003306,149.32765 L 32.163848,139.30764 V 105.19562 71.08359 L 54.183713,57.147208 c 12.111421,-7.665156 25.095718,-16.030666 28.855425,-18.589916 3.759706,-2.559249 6.973122,-4.653533 7.140374,-4.653533 0.168242,0 4.885936,3.139488 10.483438,6.975457"
     stroke="none"
     fill="#000000"
     fill-rule="evenodd"
     id="path1"
     style="fill:#e6e6e6;stroke-width:0.979112"
     sodipodi:nodetypes="csccsccccccccccsccscscscscscscscccccccssc" />
  <text
     xml:space="preserve"
     id="text1"
     style="font-size:210px;text-align:start;writing-mode:lr-tb;direction:ltr;white-space:pre;shape-inside:url(#rect1);display:inline;fill:#cccccc"><tspan
       x="178.83594"
       y="395.07965"
       id="tspan4"><tspan
         dx="0 163.34473 151.65527 163.34473 151.65527 140.06836 69.931641 163.34473"
         style="font-family:Arial;-inkscape-font-specification:Arial"
         id="tspan3">GCODE-OS</tspan></tspan></text>
  <text
     xml:space="preserve"
     style="font-style:normal;font-variant:normal;font-weight:normal;font-stretch:normal;font-size:220px;font-family:Arial;-inkscape-font-specification:Arial;text-align:start;writing-mode:lr-tb;direction:ltr;text-anchor:start;fill:#e6e6e6"
     x="192.08281"
     y="174.86157"
     id="text2"><tspan
       sodipodi:role="line"
       id="tspan2"
       x="192.08281"
       y="174.86157"
       style="font-style:normal;font-variant:normal;font-weight:normal;font-stretch:normal;font-size:220px;font-family:Calibri;-inkscape-font-specification:Calibri;fill:#e6e6e6"
       rotate="0 0 0 0 0 0 0 0 0">GCODE-OS</tspan></text>
</svg>
