<?xml version="1.0" encoding="UTF-8" standalone="no"?>
<svg
   id="svg"
   version="1.1"
   width="1200"
   height="210"
   sodipodi:docname="logo.svg"
   inkscape:version="1.4 (86a8ad7, 2024-10-11)"
   xml:space="preserve"
   xmlns:inkscape="http://www.inkscape.org/namespaces/inkscape"
   xmlns:sodipodi="http://sodipodi.sourceforge.net/DTD/sodipodi-0.dtd"
   xmlns="http://www.w3.org/2000/svg"
   xmlns:svg="http://www.w3.org/2000/svg"><defs
     id="defs1"><rect
       x="178.83571"
       y="5.2988358"
       width="641.15912"
       height="198.70634"
       id="rect1" /></defs><sodipodi:namedview
     id="namedview1"
     pagecolor="#ffffff"
     bordercolor="#000000"
     borderopacity="0.25"
     inkscape:showpageshadow="2"
     inkscape:pageopacity="0.0"
     inkscape:pagecheckerboard="0"
     inkscape:deskcolor="#d1d1d1"
     inkscape:zoom="0.75488281"
     inkscape:cx="617.31436"
     inkscape:cy="111.9379"
     inkscape:window-width="1920"
     inkscape:window-height="1017"
     inkscape:window-x="-8"
     inkscape:window-y="-8"
     inkscape:window-maximized="1"
     inkscape:current-layer="svg" /><text
     xml:space="preserve"
     id="text1"
     style="font-size:210px;text-align:start;writing-mode:lr-tb;direction:ltr;white-space:pre;shape-inside:url(#rect1);display:inline;fill:#cccccc"><tspan
       x="178.83594"
       y="395.07965"
       id="tspan5"><tspan
         dx="0 163.34473 151.65527 163.34473 151.65527 140.06836 69.931641 163.34473"
         style="font-family:Arial;-inkscape-font-specification:Arial"
         id="tspan1">GCODE-OS</tspan></tspan></text><text
     xml:space="preserve"
     style="font-style:normal;font-variant:normal;font-weight:normal;font-stretch:normal;font-size:301.923px;font-family:Arial;-inkscape-font-specification:Arial;text-align:start;writing-mode:lr-tb;direction:ltr;text-anchor:start;fill:#000000;fill-opacity:0.65;stroke-width:1.37238"
     x="226.07329"
     y="200.91536"
     id="text2"><tspan
       sodipodi:role="line"
       id="tspan2"
       x="226.07329"
       y="200.91536"
       style="font-style:normal;font-variant:normal;font-weight:normal;font-stretch:normal;font-size:301.923px;font-family:Calibri;-inkscape-font-specification:Calibri;fill:#000000;fill-opacity:0.65;stroke-width:1.37238"
       rotate="0 0 0 0 0 0 0">CNC-OS</tspan></text><path
     style="fill:#000000;fill-opacity:0.65;stroke-width:0.321185"
     d="m 96.216192,207.45159 c -0.706605,-0.22581 -3.235936,-1.53817 -5.620725,-2.91636 C 88.21067,203.15704 80.116814,198.48832 72.609124,194.16026 37.427751,173.87885 10.015803,157.9485 8.7855161,157.06942 7.2666908,155.98416 6.1832425,154.5486 5.0950525,152.17958 L 4.3573831,150.57366 V 106.0896 61.605514 L 5.2569447,59.678407 C 7.0614267,55.812693 5.5821378,56.810661 35.836947,39.048316 75.527337,15.746423 94.739178,4.6314719 96.157987,4.1497753 c 1.863609,-0.6327118 3.828317,-0.6609247 5.708193,-0.081964 0.77884,0.2398666 16.59205,9.2860167 35.14046,20.1025497 18.54841,10.816533 37.76608,22.002258 42.70593,24.857165 7.07959,4.091542 9.39813,5.598829 10.94877,7.11785 3.33261,3.264607 3.05334,-1.483155 2.95741,50.277954 l -0.0836,45.11389 -0.78831,1.54308 c -0.43358,0.8487 -1.44531,2.15392 -2.2483,2.90047 -0.80299,0.74656 -5.94051,3.9671 -11.41669,7.15675 -5.4762,3.18964 -24.55458,14.31202 -42.39638,24.71638 -17.84181,10.40438 -33.16231,19.16751 -34.04557,19.47365 -1.88015,0.65165 -4.607866,0.70432 -6.4237,0.12404 z m 6.423698,-32.42737 c 2.70427,-0.73018 3.43363,-1.12379 20.93106,-11.29596 9.33279,-5.42564 20.94339,-12.17443 25.80131,-14.99732 9.24565,-5.37258 11.16546,-6.8211 12.64622,-9.54177 1.73979,-3.19657 1.80712,-3.97476 1.80657,-20.88175 0,-17.45066 0.0219,-17.26626 -2.24778,-18.400135 -1.04696,-0.523016 -3.25774,-0.561607 -32.19877,-0.56208 L 98.303893,99.34457 v 8.83258 8.83258 h 20.668917 20.6689 l 1.08665,0.7323 c 1.69362,1.1413 1.88903,1.83121 1.89429,6.68775 0.005,4.01215 -0.0543,4.45378 -0.71794,5.41012 -0.53336,0.76855 -3.83571,2.84832 -12.6065,7.93931 -6.53611,3.79387 -15.28036,8.86971 -19.43167,11.27963 -4.15131,2.40993 -8.17583,4.58933 -8.94339,4.84311 -2.752644,0.91013 -1.557281,1.52646 -36.504236,-18.82104 -7.305375,-4.25347 -9.1079,-5.94658 -10.16785,-9.55065 -0.395976,-1.34638 -0.358175,-37.194059 0.04077,-38.675653 0.44354,-1.647186 1.959069,-3.925665 3.422764,-5.14585 1.843487,-1.536791 37.628549,-22.410746 39.593358,-23.095392 2.587716,-0.901697 3.018704,-0.734798 12.912904,5.000456 36.00551,20.871064 34.1463,19.853656 35.70902,19.541109 1.36815,-0.273629 13.12017,-7.091022 14.24175,-8.261697 1.15731,-1.207964 1.28065,-3.287757 0.2749,-4.634856 -0.35793,-0.479436 -3.52642,-2.523272 -7.06607,-4.557971 C 102.0167,36.174725 104.40361,37.511419 102.2146,37.04688 c -2.849454,-0.604698 -6.563174,-0.315465 -8.734842,0.680285 -1.411446,0.647174 -23.487247,13.341941 -50.419627,28.993986 -2.03149,1.180626 -4.387672,2.825118 -5.235949,3.654432 -1.873549,1.831674 -3.295829,4.648191 -3.76197,7.449752 -0.235548,1.415716 -0.316537,10.926937 -0.251605,29.549005 l 0.09581,27.46128 0.768116,1.92711 c 1.540299,3.86444 3.227233,5.64229 8.064469,8.49915 2.03149,1.1998 14.100002,8.1759 26.818919,15.50244 20.51426,11.81695 24.40622,13.90618 26.979503,14.48271 1.372181,0.30743 4.571346,0.19063 6.102516,-0.22281 z"
     id="path2" /></svg>
